<?xml version="1.0" standalone="no"?>
<!DOCTYPE svg PUBLIC "-//W3C//DTD SVG 20010904//EN"
 "http://www.w3.org/TR/2001/REC-SVG-20010904/DTD/svg10.dtd">
<svg version="1.0" xmlns="http://www.w3.org/2000/svg"
 width="767.000000pt" height="445.000000pt" viewBox="0 0 767.000000 445.000000"
 preserveAspectRatio="xMidYMid meet">

<g transform="translate(0.000000,445.000000) scale(0.100000,-0.100000)"
fill="#000000" stroke="none">
<path d="M66 4418 c4 -7 13 -20 20 -28 11 -14 23 -34 80 -135 30 -54 107 -236
102 -241 -3 -2 -31 -9 -64 -15 -32 -6 -89 -20 -127 -31 l-67 -20 0 -224 c0
-123 2 -224 4 -224 2 0 26 9 53 21 66 29 124 48 175 58 24 5 69 16 101 25 90
25 351 22 470 -5 51 -11 115 -29 142 -40 28 -10 54 -19 58 -19 22 0 223 -105
303 -158 198 -131 337 -269 473 -475 40 -59 74 -114 77 -122 4 -9 -7 -16 -38
-23 -38 -8 -48 -6 -93 20 -78 46 -152 79 -208 94 -62 17 -231 18 -312 3 -137
-25 -303 -142 -391 -275 -161 -243 -149 -555 32 -779 70 -88 137 -141 244
-193 l95 -47 166 0 c110 0 174 4 190 12 13 7 40 18 59 26 20 8 68 33 109 56
79 45 105 50 132 25 18 -16 20 -14 39 31 11 26 23 64 26 85 6 37 5 39 -32 58
-22 11 -57 25 -79 32 -22 7 -62 23 -89 36 l-49 24 -36 -29 c-55 -44 -150 -88
-217 -101 -71 -14 -150 2 -245 51 -87 43 -160 149 -194 279 -16 60 -16 69 0
135 27 112 104 220 194 270 51 29 162 65 200 65 30 0 183 -52 214 -73 12 -8
36 -26 52 -41 17 -14 33 -26 36 -26 3 0 45 18 93 40 47 22 110 48 140 59 53
18 54 18 102 -1 105 -42 253 -115 327 -162 43 -26 80 -47 82 -45 4 5 -73 199
-111 279 -48 101 -148 267 -207 343 -16 21 -27 40 -25 42 5 6 266 25 377 28
l85 2 -120 101 c-199 167 -357 261 -559 333 -49 18 -103 37 -120 43 -16 6 -59
35 -95 63 -270 214 -442 305 -740 390 -147 42 -135 37 -270 126 -153 102 -276
168 -463 250 -94 42 -112 46 -101 27z"/>
<path d="M525 3429 c-101 -209 -104 -442 -7 -580 16 -24 64 -79 105 -122 70
-72 76 -76 82 -55 4 13 29 56 56 96 70 106 88 182 70 297 -22 141 -98 276
-252 449 -5 5 -29 -33 -54 -85z"/>
<path d="M4190 2695 l0 -216 23 3 22 3 0 210 0 210 -22 3 -23 3 0 -216z"/>
<path d="M10 2769 l0 -127 28 -7 c105 -26 243 -116 282 -184 6 -12 13 -12 36
-3 16 6 45 14 64 17 42 7 162 24 172 25 26 1 -76 153 -148 221 -103 97 -238
162 -371 178 l-63 7 0 -127z"/>
<path d="M2620 2680 l0 -201 107 3 c93 3 108 5 111 21 3 15 -6 17 -82 17 l-86
0 0 75 0 75 70 0 c63 0 70 2 70 20 0 18 -7 20 -70 20 l-70 0 0 65 0 64 83 3
c65 2 82 6 82 18 0 12 -20 16 -107 18 l-108 3 0 -201z"/>
<path d="M3540 2680 l0 -200 78 0 c133 1 194 47 178 136 -5 25 -16 41 -37 52
-34 20 -35 23 -9 47 22 20 27 83 9 117 -16 30 -71 48 -149 48 l-70 0 0 -200z
m167 134 c19 -26 16 -71 -7 -94 -14 -14 -33 -20 -65 -20 l-45 0 0 71 0 72 52
-5 c34 -4 56 -12 65 -24z m14 -172 c27 -23 30 -75 6 -99 -10 -11 -39 -18 -77
-21 l-60 -4 0 71 0 71 54 0 c37 0 61 -6 77 -18z"/>
<path d="M2972 2775 c-81 -35 -97 -209 -26 -276 48 -45 174 -22 174 31 0 25
-2 25 -42 0 -42 -26 -61 -25 -93 3 -49 42 -45 161 8 200 26 20 47 19 115 -9 7
-4 12 3 12 16 0 15 -10 25 -35 36 -43 17 -71 17 -113 -1z"/>
<path d="M3251 2772 c-58 -29 -76 -63 -76 -145 0 -59 4 -78 23 -104 61 -86
213 -57 242 45 41 151 -66 267 -189 204z m121 -52 c43 -52 28 -173 -25 -198
-37 -18 -83 -7 -104 24 -38 58 -21 173 29 194 32 13 80 4 100 -20z"/>
<path d="M3913 2775 c-22 -9 -33 -21 -33 -34 0 -19 2 -19 35 -5 71 29 125 8
125 -49 0 -24 -4 -27 -32 -27 -117 0 -184 -81 -128 -153 30 -37 80 -45 125
-18 43 25 45 25 45 6 0 -8 9 -15 20 -15 19 0 20 7 20 114 0 63 -4 126 -10 140
-19 50 -101 70 -167 41z m127 -189 c0 -25 -7 -40 -26 -55 -34 -27 -80 -27 -94
-2 -27 52 5 91 77 91 42 0 43 -1 43 -34z"/>
<path d="M4373 2775 c-22 -9 -33 -21 -33 -34 0 -19 2 -19 35 -5 71 29 125 8
125 -49 0 -24 -4 -27 -32 -27 -117 0 -184 -81 -128 -153 30 -37 80 -45 125
-18 43 25 45 25 45 6 0 -8 9 -15 20 -15 19 0 20 7 20 114 0 63 -4 126 -10 140
-19 50 -101 70 -167 41z m127 -189 c0 -25 -7 -40 -26 -55 -34 -27 -80 -27 -94
-2 -27 52 5 91 77 91 42 0 43 -1 43 -34z"/>
<path d="M4755 2780 c-12 -4 -27 -15 -34 -24 -18 -22 -31 -20 -31 4 0 13 -7
20 -20 20 -19 0 -20 -7 -20 -151 0 -150 0 -150 23 -147 21 3 22 8 25 110 3
105 3 107 33 132 37 31 62 33 89 6 18 -18 20 -33 20 -136 0 -114 0 -115 23
-112 21 3 22 8 25 103 4 122 -8 169 -48 190 -32 17 -55 18 -85 5z"/>
<path d="M5042 2775 c-81 -35 -97 -209 -26 -276 48 -45 174 -22 174 31 0 25
-2 25 -42 0 -42 -26 -61 -25 -93 3 -49 42 -45 161 8 200 26 20 47 19 115 -9 7
-4 12 3 12 16 0 15 -10 25 -35 36 -43 17 -71 17 -113 -1z"/>
<path d="M5324 2780 c-36 -14 -72 -67 -80 -115 -13 -92 20 -166 85 -186 47
-14 124 -5 147 18 22 22 4 36 -30 23 -72 -27 -138 2 -151 67 l-6 32 103 3 103
3 -2 42 c-2 53 -16 79 -56 103 -33 21 -77 25 -113 10z m105 -56 c12 -15 21
-35 21 -45 0 -17 -9 -19 -81 -19 -70 0 -80 2 -75 16 3 9 6 19 6 23 0 4 9 17
20 29 30 32 82 30 109 -4z"/>
<path d="M10 2241 l0 -141 58 0 c31 0 67 -3 80 -6 l22 -6 0 141 0 141 -64 0
c-35 0 -71 3 -80 6 -14 5 -16 -10 -16 -135z"/>
<path d="M276 1971 c-53 -54 -130 -99 -214 -126 l-52 -17 0 -124 0 -124 54 0
c37 0 81 10 135 31 163 62 301 179 370 311 l32 63 -95 7 c-52 4 -112 12 -133
17 -21 6 -40 11 -43 11 -3 0 -28 -22 -54 -49z"/>
</g>
</svg>
